<?xml version="1.0" encoding="UTF-8"?>
<svg id="Capa_2" data-name="Capa 2" xmlns="http://www.w3.org/2000/svg" viewBox="0 0 465.84 125.87">
  <defs>
    <style>
      .cls-1 {
        font-size: 51.8px;
      }

      .cls-1, .cls-2 {
        font-family: HelveticaNeueLTPro-Lt, 'Helvetica Neue LT Pro';
      }

      .cls-1, .cls-2, .cls-3 {
        fill: #8c641e;
      }

      .cls-2 {
        font-size: 15.7px;
      }

      .cls-4 {
        letter-spacing: 2.72em;
      }

      .cls-5 {
        letter-spacing: .31em;
      }
    </style>
  </defs>
  <g id="TEXTOS_M" data-name="TEXTOS M">
    <text class="cls-1" transform="translate(0 94.58)"><tspan x="0" y="0">CHROMA ESTUDIO</tspan></text>
    <text class="cls-2" transform="translate(2.21 122.52)"><tspan x="0" y="0">Diseño que ilumina </tspan><tspan class="cls-5" x="131.96" y="0">	</tspan><tspan class="cls-4" x="141.25" y="0" xml:space="preserve">				</tspan><tspan x="329.6" y="0">Estrategia que guía.</tspan></text>
    <rect class="cls-3" x="135.56" y="117.95" width="188.89" height=".66"/>
    <g>
      <g>
        <g>
          <path class="cls-3" d="M233.87,16.38h-1.23c-.52-3.23-3.37-5.26-6.65-5.26-5.09,0-8.1,4.19-8.1,9.2,0,4.65,2.71,9.2,8.08,9.2,3.75,0,6.73-3.18,7.01-7.04h1.2c-.36,4.27-3.53,8.08-8.21,8.08-5.86,0-9.28-4.54-9.28-10.24s3.2-10.24,9.31-10.24c4.13,0,7.12,2.3,7.88,6.3Z"/>
          <path class="cls-3" d="M225.96,30.73c-5.65,0-9.45-4.18-9.45-10.41,0-5.18,2.93-10.41,9.48-10.41,4.27,0,7.28,2.41,8.05,6.44l.04.2h-1.59l-.02-.14c-.48-3.01-3.15-5.11-6.48-5.11-4.67,0-7.93,3.71-7.93,9.03,0,4.35,2.47,9.03,7.9,9.03,3.56,0,6.56-3.02,6.84-6.88v-.16h1.56l-.02.19c-.34,4.09-3.33,8.23-8.38,8.23ZM225.98,10.26c-6.31,0-9.14,5.06-9.14,10.07,0,6.02,3.66,10.07,9.11,10.07,4.77,0,7.62-3.86,8.02-7.73h-.86c-.36,3.96-3.48,7.04-7.17,7.04-5.67,0-8.25-4.86-8.25-9.37,0-5.52,3.4-9.37,8.28-9.37,3.45,0,6.22,2.15,6.8,5.26h.88c-.8-3.73-3.66-5.95-7.67-5.95Z"/>
        </g>
        <g>
          <path class="cls-3" d="M227.29,11.23c-.52.09-1.02.23-1.49.42.55.06,1.05.18,1.49.35.44-.16.94-.28,1.49-.35-.47-.19-.97-.33-1.49-.42ZM229.66,10.55c-.22,0-.43,0-.64.02-.63.03-1.21.11-1.74.25-.35.08-.68.19-.98.32-.32.14-.62.3-.89.49-.24.17-.46.36-.66.57-.78.82-1.19,1.95-1.19,3.4,0,2.01.93,3.64,2.56,4.48.36.19.75.33,1.17.44.15.04.3.07.46.09v.05c-.16.02-.31.05-.46.08-.56.11-1.05.28-1.47.51-1.33.76-1.96,2.24-1.96,4.89v.93c0,.15,0,.29,0,.44-.01.55-.05,1.02-.11,1.4-.02.12-.04.22-.06.32-.09.42-.23.71-.4.88h1.34c.08-.14.15-.3.21-.48.02-.05.03-.1.05-.16.04-.14.07-.29.1-.45.02-.14.04-.33.06-.55.08-1.22.02-3.37.14-4.03.22-1.34.85-2.34,2.12-2.85.42-.17.9-.28,1.46-.34.28-.03.57-.04.88-.04h7.06v8.9h1.21V10.55h-8.24ZM236.7,20.16h-7.06c-.41,0-.8-.03-1.17-.09-.42-.07-.81-.18-1.17-.32-1.57-.64-2.53-2.01-2.53-4.07,0-1.81.9-3.07,2.53-3.67.44-.16.94-.28,1.49-.35.13-.02.25-.03.39-.04.24-.02.49-.03.75-.03h6.79v8.57Z"/>
          <path class="cls-3" d="M238.08,30.27h-1.55v-8.9h-6.89c-.31,0-.6.01-.87.04-.54.06-1.01.17-1.42.33-1.13.45-1.78,1.34-2.01,2.71-.06.35-.07,1.18-.08,2.05,0,.69-.02,1.41-.05,1.96-.01.23-.04.42-.06.57-.03.17-.06.33-.1.47-.01.05-.03.11-.05.16-.06.19-.14.36-.23.52l-.05.08h-1.85l.29-.29c.15-.15.26-.41.35-.8.02-.1.04-.2.06-.31.06-.39.1-.85.11-1.38,0-.14,0-.28,0-.43v-.93c0-2.67.63-4.23,2.05-5.04.37-.21.79-.37,1.28-.48-.35-.1-.68-.23-.98-.39-1.68-.87-2.65-2.56-2.65-4.63,0-1.47.42-2.65,1.24-3.52.2-.21.43-.41.69-.59.27-.19.58-.36.92-.5.31-.13.65-.24,1.01-.33.54-.13,1.13-.22,1.77-.25.21-.01.43-.02.65-.02h8.41v19.89ZM236.87,29.92h.86V10.72h-8.07c-.21,0-.42,0-.63.02-.61.03-1.19.11-1.7.24-.28.07-.55.15-.8.25.24-.07.49-.12.73-.16h.03s.03,0,.03,0c.51.09,1.01.23,1.48.41.12-.01.23-.02.35-.03.24-.02.49-.03.76-.03h6.96v8.91h-7.23c-.43,0-.83-.03-1.2-.1-.44-.07-.85-.18-1.21-.34-1.7-.69-2.63-2.19-2.63-4.23,0-1.71.76-2.96,2.21-3.65-.32-.09-.66-.15-1.02-.2l-.31-.04c-.22.16-.42.33-.59.51-.76.8-1.15,1.91-1.15,3.29,0,1.94.9,3.52,2.46,4.33.35.18.73.32,1.14.42.15.04.29.07.45.09l.14.02v.35l-.15.02c-.15.02-.3.04-.45.07-.56.11-1.02.27-1.41.5-1.3.74-1.88,2.2-1.88,4.74v.93c0,.15,0,.3,0,.44-.01.54-.05,1.02-.11,1.42-.02.12-.04.23-.06.33-.06.27-.14.49-.23.67h.91c.06-.11.11-.23.15-.36.01-.05.03-.1.04-.15.04-.14.07-.28.1-.44.02-.13.04-.31.06-.53.04-.53.04-1.25.05-1.94,0-.89.02-1.73.09-2.11.25-1.5.97-2.48,2.22-2.98.43-.18.94-.3,1.51-.35.28-.03.58-.04.9-.04h7.23v8.9ZM227.31,12.18c-1.55.59-2.37,1.79-2.37,3.49,0,1.92.84,3.27,2.42,3.91.34.14.72.25,1.14.31.35.06.74.09,1.15.09h6.89v-8.22h-6.62c-.26,0-.5,0-.73.03-.13,0-.26.02-.38.04-.5.06-.96.16-1.37.31-.03,0-.05.02-.08.03l-.04.02ZM226.5,11.59c.28.06.54.14.79.22.25-.09.51-.16.79-.22-.26-.08-.52-.14-.79-.19-.27.05-.54.11-.79.18Z"/>
        </g>
      </g>
      <path class="cls-3" d="M227.29,40.64c-11.21,0-20.32-9.12-20.32-20.32S216.08,0,227.29,0s20.32,9.12,20.32,20.32-9.12,20.32-20.32,20.32ZM227.29,2.06c-10.07,0-18.26,8.19-18.26,18.26s8.19,18.26,18.26,18.26,18.26-8.19,18.26-18.26-8.19-18.26-18.26-18.26Z"/>
    </g>
  </g>
</svg>